<mxfile host="app.diagrams.net" modified="2022-06-05T07:48:59.983Z" agent="5.0 (Macintosh; Intel Mac OS X 10_14_0) AppleWebKit/537.36 (KHTML, like Gecko) Chrome/102.0.5005.61 Safari/537.36" etag="Ck-XL8hvFnD7zCMvR2TN" version="18.2.1" type="github">
  <diagram id="C5RBs43oDa-KdzZeNtuy" name="Page-1">
    <mxGraphModel dx="949" dy="473" grid="1" gridSize="10" guides="1" tooltips="1" connect="1" arrows="1" fold="1" page="1" pageScale="1" pageWidth="827" pageHeight="1169" math="0" shadow="0">
      <root>
        <mxCell id="WIyWlLk6GJQsqaUBKTNV-0" />
        <mxCell id="WIyWlLk6GJQsqaUBKTNV-1" parent="WIyWlLk6GJQsqaUBKTNV-0" />
        <mxCell id="zkfFHV4jXpPFQw0GAbJ--0" value="AbstractQueuedSynchronizer" style="swimlane;fontStyle=3;align=center;verticalAlign=top;childLayout=stackLayout;horizontal=1;startSize=26;horizontalStack=0;resizeParent=1;resizeLast=0;collapsible=1;marginBottom=0;rounded=0;shadow=0;strokeWidth=1;" parent="WIyWlLk6GJQsqaUBKTNV-1" vertex="1">
          <mxGeometry x="279" y="40" width="281" height="120" as="geometry">
            <mxRectangle x="230" y="140" width="160" height="26" as="alternateBounds" />
          </mxGeometry>
        </mxCell>
        <mxCell id="zkfFHV4jXpPFQw0GAbJ--1" value="- private volatile int state: int" style="text;align=left;verticalAlign=top;spacingLeft=4;spacingRight=4;overflow=hidden;rotatable=0;points=[[0,0.5],[1,0.5]];portConstraint=eastwest;" parent="zkfFHV4jXpPFQw0GAbJ--0" vertex="1">
          <mxGeometry y="26" width="281" height="26" as="geometry" />
        </mxCell>
        <mxCell id="zkfFHV4jXpPFQw0GAbJ--4" value="" style="line;html=1;strokeWidth=1;align=left;verticalAlign=middle;spacingTop=-1;spacingLeft=3;spacingRight=3;rotatable=0;labelPosition=right;points=[];portConstraint=eastwest;" parent="zkfFHV4jXpPFQw0GAbJ--0" vertex="1">
          <mxGeometry y="52" width="281" height="8" as="geometry" />
        </mxCell>
        <mxCell id="zkfFHV4jXpPFQw0GAbJ--5" value="+ public final void acquire(int arg : int) : void" style="text;align=left;verticalAlign=top;spacingLeft=4;spacingRight=4;overflow=hidden;rotatable=0;points=[[0,0.5],[1,0.5]];portConstraint=eastwest;" parent="zkfFHV4jXpPFQw0GAbJ--0" vertex="1">
          <mxGeometry y="60" width="281" height="26" as="geometry" />
        </mxCell>
        <mxCell id="hKoqzRAm1YRulLx25c4u-0" value="+ public final boolean release(int arg : int) : void" style="text;align=left;verticalAlign=top;spacingLeft=4;spacingRight=4;overflow=hidden;rotatable=0;points=[[0,0.5],[1,0.5]];portConstraint=eastwest;" vertex="1" parent="zkfFHV4jXpPFQw0GAbJ--0">
          <mxGeometry y="86" width="281" height="26" as="geometry" />
        </mxCell>
        <mxCell id="hKoqzRAm1YRulLx25c4u-2" value="Sync" style="swimlane;fontStyle=1;align=center;verticalAlign=top;childLayout=stackLayout;horizontal=1;startSize=26;horizontalStack=0;resizeParent=1;resizeParentMax=0;resizeLast=0;collapsible=1;marginBottom=0;" vertex="1" parent="WIyWlLk6GJQsqaUBKTNV-1">
          <mxGeometry x="249" y="230" width="342" height="90" as="geometry" />
        </mxCell>
        <mxCell id="hKoqzRAm1YRulLx25c4u-4" value="" style="line;strokeWidth=1;fillColor=none;align=left;verticalAlign=middle;spacingTop=-1;spacingLeft=3;spacingRight=3;rotatable=0;labelPosition=right;points=[];portConstraint=eastwest;" vertex="1" parent="hKoqzRAm1YRulLx25c4u-2">
          <mxGeometry y="26" width="342" height="8" as="geometry" />
        </mxCell>
        <mxCell id="hKoqzRAm1YRulLx25c4u-5" value="+ protected final boolean tryRelease(int releases : int) : void" style="text;strokeColor=none;fillColor=none;align=left;verticalAlign=top;spacingLeft=4;spacingRight=4;overflow=hidden;rotatable=0;points=[[0,0.5],[1,0.5]];portConstraint=eastwest;" vertex="1" parent="hKoqzRAm1YRulLx25c4u-2">
          <mxGeometry y="34" width="342" height="26" as="geometry" />
        </mxCell>
        <mxCell id="hKoqzRAm1YRulLx25c4u-8" value="+ final boolean nonfairTryAcquire(int acquire : int) : void" style="text;strokeColor=none;fillColor=none;align=left;verticalAlign=top;spacingLeft=4;spacingRight=4;overflow=hidden;rotatable=0;points=[[0,0.5],[1,0.5]];portConstraint=eastwest;" vertex="1" parent="hKoqzRAm1YRulLx25c4u-2">
          <mxGeometry y="60" width="342" height="30" as="geometry" />
        </mxCell>
        <mxCell id="hKoqzRAm1YRulLx25c4u-6" value="" style="endArrow=block;endSize=16;endFill=0;html=1;rounded=0;entryX=0.5;entryY=1;entryDx=0;entryDy=0;exitX=0.5;exitY=0;exitDx=0;exitDy=0;" edge="1" parent="WIyWlLk6GJQsqaUBKTNV-1" source="hKoqzRAm1YRulLx25c4u-2" target="zkfFHV4jXpPFQw0GAbJ--0">
          <mxGeometry width="160" relative="1" as="geometry">
            <mxPoint x="310" y="390" as="sourcePoint" />
            <mxPoint x="470" y="390" as="targetPoint" />
          </mxGeometry>
        </mxCell>
        <mxCell id="hKoqzRAm1YRulLx25c4u-9" value="FairSync" style="swimlane;fontStyle=1;align=center;verticalAlign=top;childLayout=stackLayout;horizontal=1;startSize=26;horizontalStack=0;resizeParent=1;resizeParentMax=0;resizeLast=0;collapsible=1;marginBottom=0;" vertex="1" parent="WIyWlLk6GJQsqaUBKTNV-1">
          <mxGeometry x="40" y="400" width="342" height="90" as="geometry" />
        </mxCell>
        <mxCell id="hKoqzRAm1YRulLx25c4u-10" value="" style="line;strokeWidth=1;fillColor=none;align=left;verticalAlign=middle;spacingTop=-1;spacingLeft=3;spacingRight=3;rotatable=0;labelPosition=right;points=[];portConstraint=eastwest;" vertex="1" parent="hKoqzRAm1YRulLx25c4u-9">
          <mxGeometry y="26" width="342" height="8" as="geometry" />
        </mxCell>
        <mxCell id="hKoqzRAm1YRulLx25c4u-11" value="+ final void lock() : void" style="text;strokeColor=none;fillColor=none;align=left;verticalAlign=top;spacingLeft=4;spacingRight=4;overflow=hidden;rotatable=0;points=[[0,0.5],[1,0.5]];portConstraint=eastwest;" vertex="1" parent="hKoqzRAm1YRulLx25c4u-9">
          <mxGeometry y="34" width="342" height="26" as="geometry" />
        </mxCell>
        <mxCell id="hKoqzRAm1YRulLx25c4u-12" value="+ protected final boolean tryAcquire(int acquire : int) : void" style="text;strokeColor=none;fillColor=none;align=left;verticalAlign=top;spacingLeft=4;spacingRight=4;overflow=hidden;rotatable=0;points=[[0,0.5],[1,0.5]];portConstraint=eastwest;" vertex="1" parent="hKoqzRAm1YRulLx25c4u-9">
          <mxGeometry y="60" width="342" height="30" as="geometry" />
        </mxCell>
        <mxCell id="hKoqzRAm1YRulLx25c4u-13" value="NonfairSync" style="swimlane;fontStyle=1;align=center;verticalAlign=top;childLayout=stackLayout;horizontal=1;startSize=26;horizontalStack=0;resizeParent=1;resizeParentMax=0;resizeLast=0;collapsible=1;marginBottom=0;" vertex="1" parent="WIyWlLk6GJQsqaUBKTNV-1">
          <mxGeometry x="450" y="400" width="342" height="90" as="geometry" />
        </mxCell>
        <mxCell id="hKoqzRAm1YRulLx25c4u-14" value="" style="line;strokeWidth=1;fillColor=none;align=left;verticalAlign=middle;spacingTop=-1;spacingLeft=3;spacingRight=3;rotatable=0;labelPosition=right;points=[];portConstraint=eastwest;" vertex="1" parent="hKoqzRAm1YRulLx25c4u-13">
          <mxGeometry y="26" width="342" height="8" as="geometry" />
        </mxCell>
        <mxCell id="hKoqzRAm1YRulLx25c4u-15" value="+ final void lock() : void" style="text;strokeColor=none;fillColor=none;align=left;verticalAlign=top;spacingLeft=4;spacingRight=4;overflow=hidden;rotatable=0;points=[[0,0.5],[1,0.5]];portConstraint=eastwest;" vertex="1" parent="hKoqzRAm1YRulLx25c4u-13">
          <mxGeometry y="34" width="342" height="26" as="geometry" />
        </mxCell>
        <mxCell id="hKoqzRAm1YRulLx25c4u-16" value="+ protected final boolean tryAcquire(int acquire : int) : void" style="text;strokeColor=none;fillColor=none;align=left;verticalAlign=top;spacingLeft=4;spacingRight=4;overflow=hidden;rotatable=0;points=[[0,0.5],[1,0.5]];portConstraint=eastwest;" vertex="1" parent="hKoqzRAm1YRulLx25c4u-13">
          <mxGeometry y="60" width="342" height="30" as="geometry" />
        </mxCell>
        <mxCell id="hKoqzRAm1YRulLx25c4u-17" value="" style="endArrow=block;endSize=16;endFill=0;html=1;rounded=0;exitX=0.5;exitY=0;exitDx=0;exitDy=0;" edge="1" parent="WIyWlLk6GJQsqaUBKTNV-1" source="hKoqzRAm1YRulLx25c4u-9">
          <mxGeometry width="160" relative="1" as="geometry">
            <mxPoint x="190.5" y="380" as="sourcePoint" />
            <mxPoint x="420" y="320" as="targetPoint" />
            <Array as="points">
              <mxPoint x="211" y="360" />
              <mxPoint x="420" y="360" />
            </Array>
          </mxGeometry>
        </mxCell>
        <mxCell id="hKoqzRAm1YRulLx25c4u-21" value="" style="endArrow=block;endSize=16;endFill=0;html=1;rounded=0;exitX=0.5;exitY=0;exitDx=0;exitDy=0;" edge="1" parent="WIyWlLk6GJQsqaUBKTNV-1" source="hKoqzRAm1YRulLx25c4u-13">
          <mxGeometry width="160" relative="1" as="geometry">
            <mxPoint x="490.5" y="400" as="sourcePoint" />
            <mxPoint x="420" y="320" as="targetPoint" />
            <Array as="points">
              <mxPoint x="621" y="360" />
              <mxPoint x="420" y="360" />
            </Array>
          </mxGeometry>
        </mxCell>
        <mxCell id="hKoqzRAm1YRulLx25c4u-22" value="ReentrantLock" style="swimlane;fontStyle=1;align=center;verticalAlign=top;childLayout=stackLayout;horizontal=1;startSize=26;horizontalStack=0;resizeParent=1;resizeParentMax=0;resizeLast=0;collapsible=1;marginBottom=0;" vertex="1" parent="WIyWlLk6GJQsqaUBKTNV-1">
          <mxGeometry x="323" y="560" width="181.5" height="116" as="geometry" />
        </mxCell>
        <mxCell id="hKoqzRAm1YRulLx25c4u-26" value="- private final Sync sync : int" style="text;strokeColor=none;fillColor=none;align=left;verticalAlign=top;spacingLeft=4;spacingRight=4;overflow=hidden;rotatable=0;points=[[0,0.5],[1,0.5]];portConstraint=eastwest;" vertex="1" parent="hKoqzRAm1YRulLx25c4u-22">
          <mxGeometry y="26" width="181.5" height="26" as="geometry" />
        </mxCell>
        <mxCell id="hKoqzRAm1YRulLx25c4u-23" value="" style="line;strokeWidth=1;fillColor=none;align=left;verticalAlign=middle;spacingTop=-1;spacingLeft=3;spacingRight=3;rotatable=0;labelPosition=right;points=[];portConstraint=eastwest;" vertex="1" parent="hKoqzRAm1YRulLx25c4u-22">
          <mxGeometry y="52" width="181.5" height="8" as="geometry" />
        </mxCell>
        <mxCell id="hKoqzRAm1YRulLx25c4u-24" value="+ public void lock() : void" style="text;strokeColor=none;fillColor=none;align=left;verticalAlign=top;spacingLeft=4;spacingRight=4;overflow=hidden;rotatable=0;points=[[0,0.5],[1,0.5]];portConstraint=eastwest;" vertex="1" parent="hKoqzRAm1YRulLx25c4u-22">
          <mxGeometry y="60" width="181.5" height="26" as="geometry" />
        </mxCell>
        <mxCell id="hKoqzRAm1YRulLx25c4u-25" value="+ public void unlock() : void" style="text;strokeColor=none;fillColor=none;align=left;verticalAlign=top;spacingLeft=4;spacingRight=4;overflow=hidden;rotatable=0;points=[[0,0.5],[1,0.5]];portConstraint=eastwest;" vertex="1" parent="hKoqzRAm1YRulLx25c4u-22">
          <mxGeometry y="86" width="181.5" height="30" as="geometry" />
        </mxCell>
        <mxCell id="hKoqzRAm1YRulLx25c4u-27" value="" style="endArrow=block;endSize=16;endFill=0;html=1;rounded=0;entryX=0.488;entryY=0.993;entryDx=0;entryDy=0;exitX=0.5;exitY=0;exitDx=0;exitDy=0;entryPerimeter=0;" edge="1" parent="WIyWlLk6GJQsqaUBKTNV-1" source="hKoqzRAm1YRulLx25c4u-22" target="hKoqzRAm1YRulLx25c4u-12">
          <mxGeometry width="160" relative="1" as="geometry">
            <mxPoint x="220.5" y="580" as="sourcePoint" />
            <mxPoint x="220" y="510" as="targetPoint" />
          </mxGeometry>
        </mxCell>
        <mxCell id="hKoqzRAm1YRulLx25c4u-28" value="" style="endArrow=block;endSize=16;endFill=0;html=1;rounded=0;entryX=0.513;entryY=0.993;entryDx=0;entryDy=0;entryPerimeter=0;" edge="1" parent="WIyWlLk6GJQsqaUBKTNV-1" target="hKoqzRAm1YRulLx25c4u-16">
          <mxGeometry width="160" relative="1" as="geometry">
            <mxPoint x="410" y="560" as="sourcePoint" />
            <mxPoint x="216.89599999999996" y="499.78999999999996" as="targetPoint" />
          </mxGeometry>
        </mxCell>
      </root>
    </mxGraphModel>
  </diagram>
</mxfile>
